<svg xmlns="http://www.w3.org/2000/svg" version="1.1" xmlns:xlink="http://www.w3.org/1999/xlink" xmlns:svgjs="http://svgjs.dev/svgjs" viewBox="0 0 1920 1080" class="overflow-hidden rounded-md drop-shadow-lg transition duration-300" style="overflow: hidden; height: 85vh;"><rect width="1920" height="1080" fill="#4123a0"/><g clip-path="url(&quot;#SvgjsClipPath1984&quot;)"><g transform="matrix(0.7544678833390833,0.8679160172561877,-0.8679160172561877,0.7544678833390833,697.5849505234232,-676.573265532383)"><path d="M0,-1080C8.803188220969043,-977.7231795359123,52.2828013602467,-687.4920905490221,52.81912932581426,-466.33907721547405C53.35545729138182,-245.186063881926,21.19840615298222,24.76392000126873,3.217967793405336,246.91808000128833C-14.762470566171547,469.07224000130793,-51.25908797828018,654.8886612548185,-55.06350083164704,866.5858827846434C-58.8679136850139,1078.2831043144683,-28.785759465403693,1301.5323896443451,-19.608509326795854,1517.1014091802379C-10.431259188188013,1732.6704287161306,-3.268084887799309,2052.850234863373,0,2160L 1920 2160 L 1920 -1080 Z" fill="url(&quot;#SvgjsLinearGradient1977&quot;)"/><path d="M274.2857142857143,-1080C270.7436762613462,-973.4800346925483,254.84781971825146,-658.0995583510191,253.03348613950587,-440.8802081552899C251.21915256076028,-223.66085795956064,258.81117836201133,-3.928294881273075,263.3997128132408,223.31610117437555C267.98824726447026,450.56049723002417,270.6515600710707,716.7600884611078,280.5646928468826,922.586168178602C290.4778256226945,1128.412247896096,323.9250058949735,1252.0369408424406,322.8785094681121,1458.2725794793403C321.8320130412507,1664.50821811624,282.38451348278056,2043.0454299132234,274.2857142857143,2160L 1920 2160 L 1920 -1080 Z" fill="url(&quot;#SvgjsLinearGradient1978&quot;)"/><path d="M548.5714285714286,-1080C550.7131449443277,-996.0536747089751,562.641123758033,-757.696831355336,561.4217268088232,-576.3220482538505C560.2023298596134,-394.94726515236505,539.8333536861386,-173.9434091931369,541.2550468761698,8.248698608912918C542.676740066201,190.44080641096272,572.9066889085592,340.05125305291745,569.9518859490103,516.8305985584482C566.9970829894613,693.6099440639789,531.132265463562,887.6237857491757,523.526229118876,1068.9247716420973C515.92019277419,1250.2257575350188,520.1414679721357,1422.790642522994,524.3156678808945,1604.6365139159777C528.4898677896532,1786.4823853089615,544.5288017896729,2067.4394189859963,548.5714285714286,2160L 1920 2160 L 1920 -1080 Z" fill="url(&quot;#SvgjsLinearGradient1979&quot;)"/><path d="M822.8571428571428,-1080C822.8537580195488,-987.3809129984882,827.11239518648,-698.5316935002086,822.8368338315788,-524.2854779909288C818.5612724766777,-350.0392624816491,803.4263184116329,-214.272731945154,797.2037747277361,-34.52270694432167C790.9812310438393,145.22731805651065,771.3635318476522,362.20621764490124,785.5015717281983,554.2146720140651C799.6396116087444,746.2231263832289,879.4433647684649,949.2859129968143,882.032014011013,1117.528019270661C884.620663253561,1285.7701255445074,810.8959457091314,1389.9219795355882,801.0334671834864,1563.6673096571446C791.1709886578415,1737.412639778701,819.2198635782,2060.611218276191,822.8571428571428,2160L 1920 2160 L 1920 -1080 Z" fill="url(&quot;#SvgjsLinearGradient1980&quot;)"/><path d="M1097.142857142857,-1080C1093.3604353925398,-954.9494306519745,1067.2069569734597,-609.1000763055177,1074.448326640953,-329.69658391184686C1081.6896963084462,-50.29309151817597,1145.069860215791,312.129527159863,1140.5910751478166,596.4209543620252C1136.112290079842,880.7123815641874,1054.816985900599,1115.455471694797,1047.5756162331058,1376.0519793011263C1040.3342465656126,1636.6484869074554,1088.8816503245653,2029.3419965501878,1097.142857142857,2160L 1920 2160 L 1920 -1080 Z" fill="url(&quot;#SvgjsLinearGradient1981&quot;)"/><path d="M1371.4285714285716,-1080C1362.1622855765725,-997.8842604656437,1318.128274840805,-748.4051967171927,1315.8308563165767,-587.3055627938622C1313.5334377923484,-426.2059288705318,1348.882859905463,-261.6369039777355,1357.6440602832015,-113.40219646001748C1366.40526066094,34.8325110577006,1373.6198182585458,146.53176671264225,1368.3980585830084,302.1026823124462C1363.176298907471,457.6735979122501,1323.6948804257268,660.2126926560727,1326.3135022299773,820.0232971388061C1328.9321240342279,979.8339016215396,1377.0546015365526,1113.4071274167536,1384.109789408511,1260.966309208847C1391.1649772804694,1408.5254910009403,1370.758165791718,1555.5394394261739,1368.644629461728,1705.3783878913662C1366.531093131738,1855.2173363565585,1370.9645811007642,2084.2297313152276,1371.4285714285716,2160L 1920 2160 L 1920 -1080 Z" fill="url(&quot;#SvgjsLinearGradient1982&quot;)"/><path d="M1645.7142857142856,-1080C1652.9906987526786,-984.1714058836831,1691.5754596602383,-682.4612202474742,1689.3727639446433,-505.02843530209805C1687.1700682290484,-327.5956503567219,1642.5789340136605,-182.82365281241155,1632.4981114207153,-15.403290327743214C1622.41728882777,152.01707215692514,1636.3068662348096,310.94003219798594,1628.8878283869722,499.49373960591197C1621.4687905391347,688.047447013838,1589.3919483877803,932.2175612272806,1587.9838843336913,1115.9189541198127C1586.5758202796023,1299.6203470123448,1610.8177104990057,1427.6885893144065,1620.439444062438,1601.7020969611044C1630.0611776258704,1775.7156046078023,1641.5018121056444,2066.9503494935175,1645.7142857142856,2160L 1920 2160 L 1920 -1080 Z" fill="url(&quot;#SvgjsLinearGradient1983&quot;)"/></g></g><defs><linearGradient x1="0.1" y1="0" x2="0" y2="1" id="SvgjsLinearGradient1977"><stop stop-color="#4123a0" offset="0"/><stop stop-color="#2c23a0" offset="0"/></linearGradient><linearGradient x1="0.1" y1="0" x2="0" y2="1" id="SvgjsLinearGradient1978"><stop stop-color="#3b2092" offset="0"/><stop stop-color="#282092" offset="0.14285714285714285"/></linearGradient><linearGradient x1="0.1" y1="0" x2="0" y2="1" id="SvgjsLinearGradient1979"><stop stop-color="#361d85" offset="0"/><stop stop-color="#251d85" offset="0.2857142857142857"/></linearGradient><linearGradient x1="0.1" y1="0" x2="0" y2="1" id="SvgjsLinearGradient1980"><stop stop-color="#301a77" offset="0"/><stop stop-color="#211a77" offset="0.42857142857142855"/></linearGradient><linearGradient x1="0.1" y1="0" x2="0" y2="1" id="SvgjsLinearGradient1981"><stop stop-color="#2b1769" offset="0"/><stop stop-color="#1d1769" offset="0.5714285714285714"/></linearGradient><linearGradient x1="0.1" y1="0" x2="0" y2="1" id="SvgjsLinearGradient1982"><stop stop-color="#25145c" offset="0"/><stop stop-color="#19145c" offset="0.7142857142857143"/></linearGradient><linearGradient x1="0.1" y1="0" x2="0" y2="1" id="SvgjsLinearGradient1983"><stop stop-color="#20114e" offset="0"/><stop stop-color="#16114e" offset="0.8571428571428571"/></linearGradient><clipPath id="SvgjsClipPath1984"><rect width="1920" height="1080"/></clipPath></defs></svg>